<?xml version="1.0" encoding="UTF-8"?>
<svg id="Calque_2" data-name="Calque 2" xmlns="http://www.w3.org/2000/svg" viewBox="0 0 1669.67 633.11">
  <defs>
    <style>
      .cls-1 {
        fill: #fff;
      }
    </style>
  </defs>
  <g id="Calque_2-2" data-name="Calque 2">
    <g id="Calque_1-2" data-name="Calque 1-2">
      <g>
        <path d="m598.69,521.05c-2.84-35.34-5.38-70.7-7.94-106.06-2.24-30.88-4.33-61.77-6.59-92.65-2.88-39.33-5.89-78.65-8.82-117.97-1.99-26.72-3.93-53.45-6.01-80.17-.11-1.37-1.27-3.8-1.96-3.81-3.82-.04-8.41-.74-11.35,1.06-24.07,14.75-47.86,29.98-71.69,45.12-20.07,12.75-40.09,25.57-60.13,38.36-34.34,21.9-68.68,43.8-103.01,65.72-1.32.85-2.47,1.96-3.64,2.9,3.55,5.83,3.71,9.12.86,17.76-.52-4.01-.77-7.31-1.41-10.52-.77-3.9-3.11-6.17-7.36-5.74-17.21,1.74-34.43,3.43-51.62,5.39-1.33.15-3.21,2.09-3.52,3.49-1.04,4.68-1.49,9.5-2.16,14.27-.35.05-.7.1-1.05.15-.67-3.01-1.87-6.01-1.9-9.03-.09-8.2-4.33-11.64-11.85-14.5-30.44-11.57-60.53-24.05-90.77-36.15-27.78-11.12-55.57-22.21-83.36-33.29-17.45-6.95-34.9-13.93-52.41-20.72-6.63-2.57-11.6,1.32-10.94,8.39,2.11,22.36,4.27,44.72,6.51,67.07,4.38,43.71,8.86,87.41,13.25,131.12,2.51,25,4.89,50.02,7.37,75.03,3.93,39.58,8.02,79.15,11.75,118.75.58,6.21,1.75,10.9,8.78,12.13,2.24.39,4.33,1.67,6.48,2.55,26.47,10.85,52.94,21.69,79.39,32.58,2.84,1.17,5.15,1.31,7.72-.97,12.84-11.34,25.91-22.42,38.72-33.78,4.52-4.01,8.54-8.58,13.19-13.3-2.64-1.23-4.54-1.87-6.17-2.92-5.96-3.86-12.14-7.5-17.57-12.01-1.63-1.36-1.93-5.52-1.29-7.99.45-1.72,3.6-3.96,5.46-3.88,8.92.38,17.88,1.06,26.7,2.41,7.78,1.19,7.72,1.65,11.75-5.24.15-.26.11-.62.16-.94-9.17-3.91-18.42-7.62-27.44-11.83-3.16-1.48-6.24-3.78-8.48-6.44-3.43-4.08-2.28-8.37,2.86-9.62,5.86-1.42,12.18-2.63,18.05-1.89,8.84,1.1,17.6,3.53,26.12,6.25,5.18,1.66,7.76.12,9.89-4.59-7.1-3.06-14.15-5.94-21.05-9.16-3.57-1.67-7.27-3.49-10.11-6.11-1.77-1.63-3.45-5.56-2.64-7.26,1.14-2.38,4.49-4.9,7.12-5.16,7.89-.79,15.93-1.16,23.82-.48,7.91.67,15.68,2.85,23.54,4.23,1.5.26,3.57.48,4.59-.31,10.76-8.28,21.34-16.8,32.02-25.18,4.29-3.37,8.44-7.07,13.15-9.74,5.21-2.96,11.11-.02,12.97,5.75.5,1.56.91,3.27.84,4.89-.13,2.95,1.16,3.98,3.96,4.5,9.32,1.74,18.57,3.79,27.86,5.7,11.51,2.36,23.07,4.86,30.42,15.22,4.74,6.69,10.2,7.23,17.43,4.58,7.88-2.89,16.33-4.09,24.53-1.8,2.99.84,5.99,3.97,7.58,6.83,1.86,3.36-.75,6.42-3.6,8.4-3.13,2.17-6.47,4.08-9.87,5.8-3.63,1.84-7.44,3.33-11.44,5.1,1.83,2.63,3.33,4.8,4.87,7.02,1.85-.49,3.44-.93,5.03-1.33,11.15-2.79,22.32-5.91,33.9-2.8,2.29.61,5.84,2.5,5.94,3.98.17,2.71-1.05,6.41-3.04,8.16-3.43,3-7.77,5.1-11.97,7.06-5.35,2.5-10.95,4.5-16.69,6.81,1.3,2.53,2.42,4.69,3.1,6.02,8.32-.88,15.87-1.83,23.44-2.42,4.14-.32,7.45,1.47,9.24,5.47,1.72,3.82.84,7.24-1.95,10.08-1.96,1.99-4.16,3.8-6.48,5.35-2.29,1.53-4.87,2.63-7.4,3.97,8.59,8.8,16.87,17.38,25.37,25.75.67.66,3.13.3,4.22-.42,9.72-6.4,19.3-12.99,28.94-19.5,30.56-20.68,61.05-41.49,91.79-61.9,4.63-3.07,6.47-5.97,6.02-11.56l-.02-.03ZM109.64,380.82c1.67-5.25,6.64-8.2,12.52-8.42,3.82-.14,7.66.01,11.48-.08,8.26-.2,16.57-2.08,24.73.79,5.06-3.41,9.66.26,14.5.77,3.9.41,7.92-.31,13.34-.6,3.22,1.83,7.14,10.96,5.21,15.39-.49,1.12-2.12,1.98-3.41,2.48-7.38,2.85-14.74,1.23-22.09-.3-12.75-2.65-25.54-4.38-38.63-2.64-7.49,1-8.99,2.16-9.78,9.87-.39,3.74-.58,7.5-.97,12.61-1.65-1.65-2.59-2.34-3.21-3.24-5.66-8.25-6.6-17.48-3.69-26.63h0Zm27.38,58.89c-1.92,1.63-2.07,5.33-3.23,8.63-9.31.74-19.26-7.32-21.52-17.9,1.96.09,3.86.18,6.12.29-.21-2.47-.39-4.56-.63-7.24,1.42.51,2.51.9,3.84,1.38.39-1.03.81-2.15,1.34-3.56,2.21,1.47,4.11,2.72,6.37,4.22.75-1.86,1.39-3.43,2.24-5.51,1.99,1.78,3.79,3.39,5.81,5.2.99-1.26,1.86-2.37,2.67-3.4.3-.09.48-.22.61-.18,11.86,3.24,22.99-3.55,34.53-2.64,7.69.6,15.23,3.19,22.64,5.21-10.18,0-20.44-.82-30.51.21-11.74,1.2-21.47,7.81-30.29,15.28h.01Zm61.52,3.52c-1.89,2.27-4.01,4.89-6.63,5.82-1.5.53-4.04-1.88-6.12-2.97.08-.66.15-1.32.23-1.98,2.78-1.58,5.56-3.15,8.99-5.1,1.17,1.38,3.75,3.96,3.53,4.22h0Zm-38.2,34.17c-10.34-1.89-15.92-7.34-17.58-17.39-.08-.49-.21-.98-.29-1.47-2.44-14.25-5.26-11.78,9.47-20.39,8.29-4.85,17.2-6.83,24.26-6.28-2.26,1.41-4.07,2.45-5.8,3.62-8.42,5.7-11.34,15.12-7.83,25.06,3.73,10.54,12.14,16.58,22.34,15.21,6.35-.85,12.89-1.97,18.77-4.39,9.21-3.79,13.13-13.47,10.53-23.17-.55-2.05-1.29-4.05-2.36-7.38,9.98,7.44,11.65,17.11,12.73,27.48-21.38,4.66-41.77,13.21-64.25,9.1h.01Zm124.44-114.66c-7.67,4.86-8.38,4.87-14.81-1.46-1.42-1.4-3.03-2.7-4.1-4.34-1.56-2.39-4.45-6.33-3.7-7.35,2.14-2.92,5.68-4.96,8.94-6.87,6.83-4,13.85-7.68,20.78-11.52,1.64-.91,2.64-3.88,5.32-1.46.21.19,1.89-.99,2.69-1.74,2.06-1.93,3.95-4.05,6.04-5.94,1.73-1.56,3.32-3.98,6.24-1.57.51.42,2,.05,2.84-.37,9.23-4.64,18.25-9.76,27.7-13.89,4.8-2.1,10.33-3.15,15.59-3.45,15.01-.86,29.34,3.07,43.51,7.51.89.28,1.77.91,2.4,1.61.78.87,1.28,1.98,1.9,2.98-1.01.43-2.01,1.19-3.03,1.22-4.32.14-8.65.06-12.98.06-22.35-.92-42.09,6.65-60.6,18.39-14.88,9.44-29.85,18.74-44.74,28.17v.02Zm113.09,35.42c-17.59,17.09-38.27,28.52-61.38,35.98-1.58.51-3.19.94-4.78,1.43-1.56.49-3.11,1.01-4.63,1.51-8.73-17.43-6.47-36.49,7.97-49.02.48,3.45.67,6.89,1.47,10.19,3.59,14.71,15.91,21.87,30.75,18.47,11.28-2.59,18.26-10.16,22.79-19.89,5.64-12.13-1.98-25.67-15.13-28.25-.76-.15-1.53-.23-2.29-.34,0-.41-.01-.81-.02-1.22,10.37-.8,20.73-1.71,31.11-2.23,1.17-.06,3.37,2.02,3.52,3.31,1.42,11.37-.53,21.45-9.39,30.06h.01Zm-29.93-17.64c1.24-1.06,2.68-1.89,4.79-3.33,1.27,1.42,3.08,3.43,4.94,5.51-2.19,1.75-3.27,2.86-4.57,3.58-1.48.81-3.4,2.06-4.68,1.67-1.56-.48-3.24-2.29-3.73-3.87-.24-.79,1.98-2.46,3.25-3.55h0Zm44.5-23.22c-11.3.1-22.77-1.02-33.86.56-25.77,3.66-46.55,15.58-58.77,39.93-.5-.64-1.24-1.51-1.89-2.45-3.33-4.82-2.83-7.69,1.13-12.03,1.4-1.54,1.71-4.07,2.67-6.53h4.41c-.24-.35-.48-.69-.72-1.04,2.08-1.69,4.15-3.38,6.96-5.66-.01-.07-.22-1.48-.5-3.31,6.44.64,7.77-4.07,9.12-9.1,1.3.22,2.53.42,4.02.67.43-1.78.81-3.35,1.28-5.28,1.15.34,2.31.69,2.89.87,2.08-1.34,3.85-2.49,6.39-4.13.07-.45.31-2.06.65-4.31,4.92,4.23,7.84,1.58,10.32-2.93,3.46,3.38,5.11.63,6.7-1.9,1.5.94,2.75,1.72,4.32,2.71.71-1.63,1.33-3.07,2.05-4.74,5.22,2.63,3.78-2.7,5.83-5.04,2.23,4.18,7.1,3.64,10.99,6.03.47-.83,1.15-2.01,2.11-3.71,1.92,1.79,3.67,3.42,5.75,5.36,1.66-2,3.31-4,5.52-6.67,2.52,2.46,4.98,4.86,7.91,7.71.36,1.76,1.07,4.7,1.54,7.68.59,3.73-2.82,7.28-6.82,7.31h0Z"/>
        <path d="m281.35,153.77c-5.95-3.69-10.89-7.4-16.36-9.97-6.06-2.86-11.27.51-11.26,7.24,0,5.58.81,11.27,2.08,16.71,1.59,6.79,7.36,9.2,13.74,5.88,3.92-2.04,7.41-4.93,12.28-8.26,5.22,19.83-2.37,39.46.12,59.16,2.21-.26,3.97-.46,5.44-.63,1.09-13.37,2.45-26.26,3.07-39.19.3-6.25.95-13.41-1.64-18.62-3.01-6.06-1.96-10.04,1.2-14.74.65-.96,1.14-2.03,1.63-3.09,7.27-15.51,5.43-24.88-7.28-36.46-3.19-2.91-6.54-5.65-9.93-8.33-12.37-9.79-16.25-22.57-10.56-37.27,4.07-10.52,9.17-20.65,13.23-31.17,4.42-11.45,5.79-23.11-.59-35.03-2.05,1.04-3.89,1.97-5.65,2.87,4.26,14.18,3.85,20.59-2.2,34.19-3.11,6.98-6.44,13.86-9.54,20.84-8.96,20.21-5.02,37.16,11.72,51.48,4.41,3.78,8.64,7.78,12.73,11.91,3.8,3.83,6.36,8.65,4.84,14.01-1.83,6.45-4.76,12.59-7.07,18.49v-.02Zm-16.84,13.27c-2.11-.6-2.8-6.93-3.73-10.75-.44-1.79.08-3.81.17-5.73.43-.39.87-.78,1.3-1.17,4.68,3.2,9.36,6.41,14.18,9.7-3.41,5.02-7.12,9.31-11.92,7.95h0Z"/>
        <path d="m184.51,76.12c1.27,11.87,5.77,16.83,17.54,19.81,4.63,1.17,9.32,2.55,13.55,4.69,4.52,2.29,6.42,6.57,5.52,11.77-.42,2.46-1.03,4.89-1.39,7.35-.75,5.2-.46,10.8,4.37,13.45,11.87,6.53,15.07,16.31,12.75,28.82-.03.16,0,.33,0,.5-.61,10.08,3.34,17.84,11.07,24.37,8.24,6.96,12.49,15.91,13.89,27.09,1.62,12.86,5.7,25.42,8.76,38.33,2.96-.62,4.84-1.02,7.14-1.5-.77-3.41-1.4-6.3-2.07-9.17-2.3-9.84-5.61-19.57-6.69-29.54-1.33-12.25-6.35-22.08-15.6-29.53-6.65-5.36-10.44-11.38-9.71-20.02.22-2.65-.19-5.37.21-7.98,1.53-10.07-2.43-17.87-10.59-23.07-6.64-4.23-7.27-9.19-5.47-16.12,2.89-11.09-3.63-21.16-14.75-23.84-3.39-.82-6.83-1.46-10.21-2.3-7.54-1.88-9.98-4.59-10.91-12.24-1.12-9.24-1.83-18.55-3.26-27.74-1.58-10.18-5.31-19.42-14.12-26.36-1.58,1.85-2.83,3.32-4.2,4.93,6.13,6.15,9.8,13.34,11.03,21.57,1.32,8.87,2.19,17.82,3.15,26.74h-.01Z"/>
        <path d="m348.36,159.5c-4.01,16.25-12.85,29.2-24.37,40.99-7.74,7.92-12.68,17.63-14.64,28.91-1.37,7.89-4.25,15.52-6.66,23.97.35.48,1.49,2.04,2.61,3.57,4.92-4.45,7.72-8.77,9.08-19.15,2.05-15.68,9.46-27.98,20.52-38.79,8.21-8.02,13.81-17.82,16.99-28.94,1.05-3.67,2.3-7.29,3.63-10.87,2.46-6.61,6.41-11.79,13.1-14.91,9.43-4.41,17.19-11,21.5-20.66,3.83-8.6,7.48-17.38,10.17-26.39,3-10.06,7.19-18.91,16.37-24.7,14.32-9.04,17.75-25.44,26.88-38.29-2.19-1.53-3.66-2.55-5.83-4.06-3.46,5.99-6.84,11.32-9.7,16.91-4.38,8.54-9.57,16.21-17.65,21.8-6.42,4.44-11.11,10.5-13.62,18.01-1.47,4.41-2.73,8.89-4.03,13.35-4.75,16.3-12.29,30.42-28.4,38.43-8.56,4.26-13.72,11.86-15.93,20.81h-.02Z"/>
        <path d="m130.98,100.91c10.27,1.43,14.81,4.65,14.95,16.32.09,7.87,1.95,14.85,8.62,19.73,2.4,1.75,4.89,3.55,7.61,4.67,10.77,4.4,18.09,11.4,19.57,23.56.6,4.94,1.75,9.82,2.92,14.67,1.37,5.64,3.84,10.86,9.22,13.61,5.71,2.93,11.64,5.57,17.71,7.67,8.03,2.78,16.57,4.78,22.34,11.41,4.96,5.69,9.02,12.19,13.26,18.47,2.46,3.65,4.51,7.57,6.83,11.51,1.56-1.02,2.54-1.62,3.49-2.28.54-.37,1.02-.82,2.42-1.97-5.88-9.16-11.17-18.39-17.45-26.88-5.09-6.87-12.16-11.76-20.49-14.36-4.43-1.39-8.99-2.35-13.45-3.65-9.66-2.82-16.57-8.1-17.73-19.04-.53-4.94-1.89-9.79-2.97-14.67-2.36-10.63-8.41-18.22-18.6-22.34-1.54-.62-3.07-1.27-4.59-1.95-7.3-3.26-11.5-8.51-11.88-16.85-.73-16.06-6.25-22.65-22.18-25.01-13.39-1.98-20.97-9.66-25.03-21.87-1.19-3.59-2.46-7.14-3.83-11.07-2.47.88-4.4,1.56-6.62,2.35,1.65,4.58,3.17,8.61,4.54,12.68,5.07,15.12,15.44,23.06,31.34,25.28h0Z"/>
        <path d="m298.62,243.28c.36-1.54.78-2.78.91-4.04.75-7.28,1.46-14.56,2.12-21.85,1.49-16.52,4.39-32.59,13.56-46.94,1.82-2.85,3.16-6.51,3.28-9.84.29-8.58.25-17.23-.54-25.78-1.2-13.12-.23-25.16,12.48-32.73,10.02-5.97,13.54-15.22,11.89-25.94-1.98-12.82,1.6-23.9,7.47-34.83,6.66-12.4,10.37-25.71,11.46-40.12-2.1-.41-3.97-.77-6.08-1.18-.34,1.22-.63,1.97-.76,2.75-2.29,14.02-5.88,27.49-13.22,39.95-5.76,9.78-8.02,20.5-5.72,32.14,1.82,9.24-1.36,16.73-9.93,22-8,4.93-13.11,12.57-13.87,22.04-.59,7.38-.03,14.9.57,22.31.76,9.37,1.58,18.72-3.53,27.19-6.99,11.59-11.22,24.08-12.72,37.46-1.35,12.02-2.37,24.07-3.54,36.19,2.38.47,4.11.8,6.17,1.21h0Z"/>
        <path d="m101.34,154.52c15.48,3.69,24.93,14.34,32.52,27.38,3.17,5.45,6.28,11.02,10.16,15.96,12.04,15.31,29,23.48,46.4,30.81,21.31,8.97,42.65,17.86,60.63,34.33,1.02-2.65,6.73-3.13,2.11-7.1-10.01-8.6-20.73-16.07-32.81-21.56-15.88-7.21-31.76-14.43-47.44-22.04-9.02-4.38-17.4-9.92-23.16-18.45-3.91-5.78-7.72-11.65-11.12-17.74-10.16-18.24-26.32-27.25-46.14-31.42-11.85-2.5-23.54-5.82-35.16-9.25-5.77-1.71-5.9-2.06-7.96,4.62,3.93,1.48,7.81,3.34,11.9,4.42,13.32,3.51,26.69,6.85,40.09,10.04h-.02Z"/>
        <path d="m425.58,143.71c-6.84,17.01-18.27,30.37-32.71,41.26-17.39,13.11-35.03,25.87-52.4,39.01-4.8,3.63-9.01,8.05-13.75,12.34,2.27,2.05,3.7,3.34,5.25,4.74,4.99-4.55,9.33-9.2,14.35-12.96,12.51-9.36,25.38-18.22,37.99-27.46,16.41-12.02,32.51-24.38,42.04-43.15,3.01-5.93,6.29-11.71,9.27-17.65,6.2-12.37,15.51-21.49,28.12-27.16,6.37-2.86,12.92-5.31,19.24-8.26,7.58-3.54,15-7.43,22.94-11.39-1.92-2.54-3-3.97-3.72-4.92-10.03,4.36-19.09,8.91-28.57,12.29-22.07,7.87-39.1,21.08-48.04,43.32h0Z"/>
        <path d="m309.78,503.73c-7.6-2.08-12.59.27-16.89,7.92,15.66,3.52,31.1,7.14,47.5,1.92-1.59-.81-3.1-1.88-4.79-2.39-8.58-2.58-17.18-5.1-25.82-7.46h0Z"/>
      </g>
    </g>
    <g>
      <path class="cls-1" d="m1665.22,454.13c.52-12.94.94-25.6,1.6-38.24.15-2.84-.47-3.84-3.45-3.7-11.79.57-23.58,1-35.37,1.34-2.18.06-2.7.96-2.7,2.86,0,6.79-.09,13.58-.12,20.37-.02,5.74,0,11.49,0,17.36h40.04Z"/>
      <path d="m703.06,454v-241.58c1-.06,1.87-.16,2.75-.14,14.75.19,29.5.39,44.25.59,15.69.21,34.77,14.18,35.91,35.37.54,10.13-.27,20.34-.75,30.51-.74,15.72-1.72,31.42-2.59,47.13-1.84,33.46-3.72,66.91-5.44,100.38-.23,4.38-1.66,7.68-5.01,10.58-5.57,4.82-10.74,10.1-16.24,15-1.33,1.18-3.31,2.3-5,2.32-15.55.17-31.11.1-46.66.08-.32,0-.64-.12-1.22-.23Zm33.88-32.25c1.9-.26,3.34-.63,4.77-.63,2.74.02,3.65-1.26,3.24-3.83-.11-.66-.03-1.36-.01-2.03,1.07-54.88,2.14-109.76,3.21-164.64.14-7.14.15-7-7.18-7.15-3.01-.06-4.06.63-4.06,3.89.09,55.92.05,111.84.03,167.75,0,2.01,0,4.03,0,6.63Z"/>
      <path d="m1213.43,454.26c-2.35-14.25-4.62-27.97-6.86-41.69-3.02-18.53-6-37.06-9.02-55.58-.71-4.32-1.1-4.56-5.29-3.75-1.22.24-2.45.43-3.52.62-2.25,33.32-4.49,66.59-6.77,100.41-3.16,0-6.06,0-8.96,0-4.2,0-8.41-.14-12.6.05-2.46.11-3.13-.83-3.12-3.12.02-5.77-.24-11.55-.24-17.32,0-69.88.03-139.76-.03-209.64,0-4.41,1.35-7.53,5.8-8.7,3.6-.94,7.23-2.24,10.89-2.38,13.15-.52,26.33-.85,39.49-.79,12.19.05,18.71,6.33,19.82,18.71.69,7.66,1,15.37,1.28,23.06.77,21.5,1.31,43.01,2.23,64.51.23,5.41-.84,9.86-4.57,13.93-3.13,3.41-5.77,7.28-8.36,11.13-.74,1.1-1.03,2.97-.69,4.26,8.15,30.7,16.44,61.35,24.57,92.05.36,1.36-.17,3.24-.88,4.55-4.32,8.02-10.93,11.23-20.12,9.81-4.2-.65-8.58-.11-13.05-.11Zm-25.36-135.25c4.73,0,9.01-.12,13.28.05,2.45.1,3.09-.86,3.09-3.16-.05-23.99-.04-47.98.04-71.97,0-2.22-.84-3.15-2.95-3.06-4.83.19-9.66.39-14.71.6.42,26.22.84,51.95,1.25,77.54Z"/>
      <path d="m1149.14,212.27c-.99,8.44-1.89,16.29-2.85,24.13-2.18,17.86-4.39,35.72-6.56,53.58-2.88,23.71-5.76,47.42-8.6,71.13-2.63,21.91-5.21,43.83-7.8,65.75-.94,7.98-1.79,15.97-2.88,23.93-.14,1.03-1.36,2.61-2.26,2.75-9.18,1.38-18.39,2.52-28.13,3.8-13.22-81.76-26.39-163.19-39.64-245.06,4.46,0,8.52,0,12.59,0,6.81,0,13.63.07,20.44-.04,2.14-.03,2.96.68,3.2,2.84,2.64,23.96,5.37,47.91,8.08,71.87,2.19,19.34,4.37,38.69,6.59,58.02.96,8.32,2.02,16.62,3.06,24.92.12.97.38,1.91,1.28,2.89.17-1.37.42-2.74.51-4.12,1.68-24.96,3.22-49.94,5.06-74.89,1.78-24.16,3.86-48.3,5.81-72.45.05-.56.1-1.13.13-1.69q.4-7.35,7.92-7.35c7.81,0,15.62,0,24.06,0Z"/>
      <path d="m1343.29,416.13v37.93c-.94.06-1.91.19-2.88.19-24.52.01-49.04-.05-73.57.08-3.06.02-3.78-.91-3.78-3.85.08-78.14.07-156.28.08-234.42,0-1.11,0-2.21,0-3.55h80.31c0,3.96,0,7.99,0,12.02,0,4.98-.16,9.97.06,14.95.12,2.8-.87,3.44-3.53,3.31-11.33-.55-22.68-.91-34.01-1.33-.99-.04-1.99,0-3.4,0,0,1.5,0,2.71,0,3.91,0,17.89,0,35.79,0,53.68,0,2.23-.88,5.18.22,6.49,1.11,1.32,4.17,1.02,6.38,1.43,11.26,2.05,22.52,4.1,34.3,6.24,0,4.42,0,9.01,0,13.6,0,2.6-.17,5.22.04,7.81.23,2.74-.75,3.53-3.47,3.37-9.86-.54-19.73-.93-29.59-1.26-4.3-.15-8.6-.02-13.21-.02v82.61c15.45-1.06,30.66-2.11,46.06-3.17Z"/>
      <path d="m807.6,212.4h79.21c.1,1.07.26,2.03.27,3,.11,7.81.09,15.63.33,23.44.1,3.06-.72,4.14-4.03,3.95-11.21-.64-22.45-.94-33.68-1.36-.99-.04-1.99,0-3.28,0-.06,1.41-.15,2.51-.16,3.61-.04,19.48-.05,38.95-.14,58.43,0,1.8.38,2.51,2.32,2.83,11.52,1.88,23.01,3.99,34.53,5.89,3,.49,4.56,1.43,4.37,4.94-.31,5.64-.17,11.33.08,16.98.14,3.22-.97,4.02-4.12,3.87-13.04-.62-26.08-.97-39.13-1.41-.99-.03-1.99,0-3.48,0,0,1.54,0,2.74,0,3.95-.02,25.14.02,50.28-.12,75.42-.02,2.99,1.12,3.35,3.62,3.17,13.02-.95,26.04-1.8,39.06-2.67,1.22-.08,2.44-.12,3.85-.19v37.75h-79.51v-241.58Z"/>
      <path d="m1407.5,409.44c8.89-1.3,17.39-2.57,25.9-3.77,4.94-.7,9.91-1.19,14.84-1.96,2.02-.32,2.64.45,2.85,2.24,1.5,13.04,3.02,26.08,4.58,39.11.27,2.29-1.06,2.27-2.69,2.27-7.61-.02-15.21.03-22.82.04-19.64.03-39.28.02-58.92.11-2.23.01-3.3-.32-3.2-2.92.98-26.82,1.85-53.64,2.75-80.46.89-26.48,1.72-52.96,2.68-79.44.87-23.98,1.87-47.95,2.82-72.16h76v35.01h-46.11v57.2h35.38c0,8.05.08,15.83-.12,23.6-.02.8-1.6,2.06-2.62,2.26-8.56,1.68-17.16,3.16-25.75,4.7-.22.04-.45.04-.67.09-6.19,1.41-5.19.37-5.19,6.41.02,21.4.03,42.81.05,64.21,0,1.09.14,2.17.23,3.46Z"/>
      <path d="m1469.26,453.85v-32.25h45.33c-.8-8.7-1.56-17.01-2.31-25.33-1.51-16.69-3.08-33.37-4.42-50.06-.2-2.52-1.07-3.47-3.38-4.03-10.24-2.48-20.42-5.19-30.66-7.63-3.16-.75-4.69-1.93-4.68-5.58.09-29.44-.08-58.88-.09-88.32,0-3.38.24-6.81.83-10.14,1.9-10.66,9.49-17.81,20.32-18.06,18.16-.41,36.33-.14,54.5-.19,1.75,0,2.41.64,2.39,2.39-.04,6.57-.09,13.14.09,19.71.09,3.26-2.17,3.31-4.25,3.58-9.33,1.22-18.68,2.36-28.02,3.54-4.81.61-9.61,1.24-14.13,1.82.91,12.19,1.85,24.36,2.73,36.53.6,8.35,1.17,16.71,1.65,25.08.12,2.1.82,3.06,3.04,3.61,11.99,2.94,23.92,6.16,35.89,9.17,2.28.57,3.1,1.63,3.1,3.98-.09,34.55-.15,69.09-.12,103.64.01,17.65-14.35,28.28-29.28,28.82-15.54.56-31.11.13-46.66.11-.53,0-1.07-.21-1.88-.38Z"/>
      <path d="m989,421.78v32.21h-75.96v-241.55c.76-.06,1.51-.17,2.27-.17,9.54-.01,19.08.07,28.61-.06,2.55-.03,3.8.53,3.54,3.36-.22,2.47-.05,4.98-.05,7.47-.01,61.73-.02,123.47-.04,185.2,0,8.63.61,9.14,9.33,9.99,10.71,1.04,21.39,2.34,32.3,3.55Z"/>
      <path d="m1041.49,454.25c-11.2,0-21.52-.04-31.83.03-2.25.01-2.22-1.37-2.25-2.91-.09-5.89-.28-11.77-.28-17.66-.02-54.92-.02-109.84,0-164.76,0-2.38-.04-4.77.18-7.13.77-8.27-.32-16.14-3.76-23.82-1.43-3.19-1.78-6.98-2.02-10.54-.33-4.84-.08-9.72-.08-14.89h43.04c-.99,80.42-1.99,160.84-2.99,241.68Z"/>
      <path d="m1626.25,212.39h43.42c-4.37,60.49-8.72,120.81-13.1,181.57-5.88-.66-11.59-1.2-17.27-1.96-6.87-.92-6.67-1.01-6.93-7.92-.79-20.48-1.76-40.95-2.63-61.43-1.18-27.83-2.41-55.66-3.43-83.49-.32-8.8-.05-17.62-.05-26.77Z"/>
      <path d="m1665.22,454.13h-40.04c0-5.87-.02-11.61,0-17.36.03-6.79.12-13.58.12-20.37,0-1.9.52-2.8,2.7-2.86,11.79-.34,23.59-.77,35.37-1.34,2.98-.14,3.6.86,3.45,3.7-.66,12.64-1.08,25.29-1.6,38.24Z"/>
      <path d="m1339.74,171.66c-7.65,6.56-14.94,12.82-22.24,19.07-4.73,4.05-9.42,8.15-14.26,12.06-.8.65-2.71,1.02-3.41.54-5.56-3.87-10.95-7.99-16.6-12.18,11.3-14.33,22.4-28.42,34.02-43.16,7.33,7.71,14.66,15.43,22.5,23.67Z"/>
      <path d="m861.33,148.1c7.57,7.88,14.77,15.38,22.26,23.18-1.09,1.16-1.97,2.28-3.03,3.19-11.07,9.52-22.15,19.03-33.31,28.45-.7.59-2.47.89-3.11.44-5.56-3.87-10.97-7.95-16.79-12.24,11.32-14.33,22.5-28.48,33.98-43.02Z"/>
    </g>
  </g>
</svg>